<svg xmlns="http://www.w3.org/2000/svg" viewBox="0 0 1600 900" width="1600" height="900">
  <defs>
    <linearGradient id="bg" x1="0" y1="0" x2="0" y2="1">
      <stop offset="0%" stop-color="#fafbfe"/>
      <stop offset="60%" stop-color="#e8eef7"/>
      <stop offset="100%" stop-color="#d4e0f0"/>
    </linearGradient>
    <radialGradient id="glow" cx="50%" cy="40%" r="55%">
      <stop offset="0%" stop-color="#fafbfe" stop-opacity="0.4"/>
      <stop offset="100%" stop-color="#d4e0f0" stop-opacity="0"/>
    </radialGradient>
    <filter id="bloom">
      <feGaussianBlur stdDeviation="8"/>
    </filter>
    <pattern id="finelace" width="40" height="40" patternUnits="userSpaceOnUse">
      <path d="M0,20 Q10,10 20,20 Q30,30 40,20" fill="none" stroke="#d4e0f0" stroke-width="0.4" opacity="0.2"/>
      <path d="M20,0 Q10,10 20,20 Q30,30 20,40" fill="none" stroke="#d4e0f0" stroke-width="0.4" opacity="0.2"/>
    </pattern>
  </defs>

  <rect width="1600" height="900" fill="url(#bg)"/>
  <rect width="1600" height="900" fill="url(#finelace)"/>

  <ellipse cx="800" cy="400" rx="700" ry="400" fill="url(#glow)" filter="url(#bloom)"/>

  <rect x="12" y="12" width="1576" height="876" fill="none" stroke="#14224a" stroke-width="3" rx="8"/>
  <rect x="20" y="20" width="1560" height="860" fill="none" stroke="#7fa7d4" stroke-width="1" rx="6"/>
  <rect x="28" y="28" width="1544" height="844" fill="none" stroke="#d4e0f0" stroke-width="1" rx="4"/>

  <g transform="translate(100,100) scale(1.3)" opacity="0.4">
    <path d="M0,-38 C15,-33 24,-14 20,0 C24,14 15,33 0,38 C-15,33 -24,14 -20,0 C-24,-14 -15,-33 0,-38Z" fill="none" stroke="#7fa7d4" stroke-width="1.5"/>
    <path d="M0,-25 C10,-21 16,-10 13,0 C16,10 10,21 0,25 C-10,21 -16,10 -13,0 C-16,-10 -10,-21 0,-25Z" fill="#d4e0f0" opacity="0.5"/>
    <path d="M0,-12 C5,-10 8,-5 7,0 C8,5 5,10 0,12 C-5,10 -8,5 -7,0 C-8,-5 -5,-10 0,-12Z" fill="#14224a" opacity="0.25"/>
    <circle cx="0" cy="0" r="3" fill="#7fa7d4" opacity="0.4"/>
    <path d="M-25,-25 C-18,-34 -5,-37 0,-32" fill="none" stroke="#d4e0f0" stroke-width="0.8"/>
    <path d="M25,-25 C18,-34 5,-37 0,-32" fill="none" stroke="#d4e0f0" stroke-width="0.8"/>
    <path d="M-25,25 C-18,34 -5,37 0,32" fill="none" stroke="#d4e0f0" stroke-width="0.8"/>
    <path d="M25,25 C18,34 5,37 0,32" fill="none" stroke="#d4e0f0" stroke-width="0.8"/>
  </g>

  <g transform="translate(1500,100) scale(-1,1) scale(1.3)" opacity="0.4">
    <path d="M0,-38 C15,-33 24,-14 20,0 C24,14 15,33 0,38 C-15,33 -24,14 -20,0 C-24,-14 -15,-33 0,-38Z" fill="none" stroke="#7fa7d4" stroke-width="1.5"/>
    <path d="M0,-25 C10,-21 16,-10 13,0 C16,10 10,21 0,25 C-10,21 -16,10 -13,0 C-16,-10 -10,-21 0,-25Z" fill="#d4e0f0" opacity="0.5"/>
    <path d="M0,-12 C5,-10 8,-5 7,0 C8,5 5,10 0,12 C-5,10 -8,5 -7,0 C-8,-5 -5,-10 0,-12Z" fill="#14224a" opacity="0.25"/>
    <circle cx="0" cy="0" r="3" fill="#7fa7d4" opacity="0.4"/>
  </g>

  <g transform="translate(100,800) scale(1,-1) scale(1.3)" opacity="0.4">
    <path d="M0,-38 C15,-33 24,-14 20,0 C24,14 15,33 0,38 C-15,33 -24,14 -20,0 C-24,-14 -15,-33 0,-38Z" fill="none" stroke="#7fa7d4" stroke-width="1.5"/>
    <path d="M0,-25 C10,-21 16,-10 13,0 C16,10 10,21 0,25 C-10,21 -16,10 -13,0 C-16,-10 -10,-21 0,-25Z" fill="#d4e0f0" opacity="0.5"/>
    <path d="M0,-12 C5,-10 8,-5 7,0 C8,5 5,10 0,12 C-5,10 -8,5 -7,0 C-8,-5 -5,-10 0,-12Z" fill="#14224a" opacity="0.25"/>
    <circle cx="0" cy="0" r="3" fill="#7fa7d4" opacity="0.4"/>
  </g>

  <g transform="translate(1500,800) scale(-1,-1) scale(1.3)" opacity="0.4">
    <path d="M0,-38 C15,-33 24,-14 20,0 C24,14 15,33 0,38 C-15,33 -24,14 -20,0 C-24,-14 -15,-33 0,-38Z" fill="none" stroke="#7fa7d4" stroke-width="1.5"/>
    <path d="M0,-25 C10,-21 16,-10 13,0 C16,10 10,21 0,25 C-10,21 -16,10 -13,0 C-16,-10 -10,-21 0,-25Z" fill="#d4e0f0" opacity="0.5"/>
    <path d="M0,-12 C5,-10 8,-5 7,0 C8,5 5,10 0,12 C-5,10 -8,5 -7,0 C-8,-5 -5,-10 0,-12Z" fill="#14224a" opacity="0.25"/>
    <circle cx="0" cy="0" r="3" fill="#7fa7d4" opacity="0.4"/>
  </g>

  <g opacity="0.3">
    <path d="M250,52 Q320,35 390,52 Q460,69 530,52 Q600,35 670,52 Q740,69 810,52 Q880,35 950,52 Q1020,69 1090,52 Q1160,35 1230,52 Q1300,69 1350,52" fill="none" stroke="#7fa7d4" stroke-width="1.2"/>
    <path d="M250,58 Q320,75 390,58 Q460,41 530,58 Q600,75 670,58 Q740,41 810,58 Q880,75 950,58 Q1020,41 1090,58 Q1160,75 1230,58 Q1300,41 1350,58" fill="none" stroke="#d4e0f0" stroke-width="0.8"/>
    <circle cx="390" cy="55" r="3" fill="#7fa7d4" opacity="0.4"/>
    <circle cx="530" cy="55" r="3" fill="#7fa7d4" opacity="0.4"/>
    <circle cx="670" cy="55" r="3" fill="#7fa7d4" opacity="0.4"/>
    <circle cx="810" cy="55" r="3" fill="#7fa7d4" opacity="0.4"/>
    <circle cx="950" cy="55" r="3" fill="#7fa7d4" opacity="0.4"/>
    <circle cx="1090" cy="55" r="3" fill="#7fa7d4" opacity="0.4"/>
    <circle cx="1230" cy="55" r="3" fill="#7fa7d4" opacity="0.4"/>
  </g>

  <g opacity="0.3" transform="translate(0,845)">
    <path d="M250,0 Q320,17 390,0 Q460,-17 530,0 Q600,17 670,0 Q740,-17 810,0 Q880,17 950,0 Q1020,-17 1090,0 Q1160,17 1230,0 Q1300,-17 1350,0" fill="none" stroke="#7fa7d4" stroke-width="1.2"/>
  </g>

  <text x="800" y="130" text-anchor="middle" font-family="Georgia, 'Times New Roman', serif" font-size="36" fill="#14224a" letter-spacing="5" opacity="0.85">НЕГЛИЖЕ</text>
  <text x="800" y="162" text-anchor="middle" font-family="Georgia, 'Times New Roman', serif" font-size="14" fill="#7fa7d4" letter-spacing="4" opacity="0.6">ДОМАШНИЙ ПАШТЕТ · РУЧНАЯ РАБОТА</text>

  <g opacity="0.35" transform="translate(500,180)">
    <path d="M0,0 Q160,14 300,0" fill="none" stroke="#7fa7d4" stroke-width="1.2"/>
    <path d="M0,5 Q160,19 300,5" fill="none" stroke="#d4e0f0" stroke-width="0.6"/>
    <circle cx="300" cy="2" r="4" fill="#7fa7d4"/>
    <circle cx="0" cy="2" r="4" fill="#7fa7d4"/>
  </g>

  <ellipse cx="800" cy="720" rx="680" ry="130" fill="#d4e0f0" opacity="0.12"/>
  <ellipse cx="800" cy="720" rx="660" ry="122" fill="#fafbfe" opacity="0.25"/>
  <path d="M140,690 Q800,750 1460,690" fill="none" stroke="#7fa7d4" stroke-width="1" opacity="0.35"/>
  <path d="M155,700 Q800,760 1445,700" fill="none" stroke="#d4e0f0" stroke-width="0.6" opacity="0.2"/>

  <path d="M250,630 L300,610 L1300,610 L1350,630 Z" fill="#fafbfe" opacity="0.5"/>
  <path d="M270,625 L315,608 L1285,608 L1330,625 Z" fill="none" stroke="#7fa7d4" stroke-width="0.8" opacity="0.25"/>

  <g opacity="0.12">
    <circle cx="450" cy="620" r="6" fill="none" stroke="#7fa7d4" stroke-width="0.8"/>
    <circle cx="450" cy="620" r="3" fill="#d4e0f0"/>
    <circle cx="600" cy="620" r="6" fill="none" stroke="#7fa7d4" stroke-width="0.8"/>
    <circle cx="600" cy="620" r="3" fill="#d4e0f0"/>
    <circle cx="850" cy="620" r="6" fill="none" stroke="#7fa7d4" stroke-width="0.8"/>
    <circle cx="850" cy="620" r="3" fill="#d4e0f0"/>
    <circle cx="1000" cy="620" r="6" fill="none" stroke="#7fa7d4" stroke-width="0.8"/>
    <circle cx="1000" cy="620" r="3" fill="#d4e0f0"/>
    <circle cx="1150" cy="620" r="6" fill="none" stroke="#7fa7d4" stroke-width="0.8"/>
    <circle cx="1150" cy="620" r="3" fill="#d4e0f0"/>
    <path d="M510,618 Q520,612 530,618" fill="none" stroke="#7fa7d4" stroke-width="0.6"/>
    <path d="M690,618 Q700,612 710,618" fill="none" stroke="#7fa7d4" stroke-width="0.6"/>
    <path d="M790,618 Q800,612 810,618" fill="none" stroke="#7fa7d4" stroke-width="0.6"/>
    <path d="M940,618 Q950,612 960,618" fill="none" stroke="#7fa7d4" stroke-width="0.6"/>
    <path d="M1090,618 Q1100,612 1110,618" fill="none" stroke="#7fa7d4" stroke-width="0.6"/>
  </g>

  <!-- Center jar -->
  <g transform="translate(800,540)">
    <ellipse cx="0" cy="110" rx="70" ry="16" fill="#14224a" opacity="0.08"/>
    <path d="M-60,-35 Q-68,25 -56,100 Q-52,118 0,118 Q52,118 56,100 Q68,25 60,-35Z" fill="#fafbfe" stroke="#7fa7d4" stroke-width="1.3" opacity="0.9"/>
    <path d="M-55,0 Q-62,35 -51,90 Q-47,108 0,108 Q47,108 51,90 Q62,35 55,0Z" fill="#e8eef7" opacity="0.3"/>
    <ellipse cx="0" cy="-35" rx="58" ry="15" fill="#d4e0f0" opacity="0.25"/>
    <rect x="-45" y="-75" width="90" height="45" rx="5" fill="#fafbfe" stroke="#7fa7d4" stroke-width="1"/>
    <circle cx="0" cy="-90" r="35" fill="#fafbfe" stroke="#d4e0f0" stroke-width="1" opacity="0.75"/>
    <rect x="-40" y="-5" width="80" height="45" rx="4" fill="#fafbfe" opacity="0.5" stroke="#d4e0f0" stroke-width="0.6"/>
    <text x="0" y="12" text-anchor="middle" font-family="Georgia, serif" font-size="7.5" fill="#14224a" opacity="0.45">НЕГЛИЖЕ</text>
    <text x="0" y="25" text-anchor="middle" font-family="Georgia, serif" font-size="6" fill="#7fa7d4" opacity="0.35">ПАШТЕТ КЛАССИЧЕСКИЙ</text>
    <path d="M-44,-25 Q-52,30 -42,90" fill="none" stroke="#fafbfe" stroke-width="2" opacity="0.2"/>
  </g>

  <!-- Left jar -->
  <g transform="translate(620,555) scale(0.7)">
    <ellipse cx="0" cy="100" rx="55" ry="12" fill="#14224a" opacity="0.07"/>
    <path d="M-50,-30 Q-56,20 -46,90 Q-42,105 0,105 Q42,105 46,90 Q56,20 50,-30Z" fill="#fafbfe" stroke="#d4e0f0" stroke-width="1" opacity="0.75"/>
    <path d="M-46,0 Q-52,28 -42,80 Q-38,95 0,95 Q38,95 42,80 Q52,28 46,0Z" fill="#e8eef7" opacity="0.25"/>
    <rect x="-38" y="-62" width="76" height="36" rx="4" fill="#fafbfe" stroke="#d4e0f0" stroke-width="0.8"/>
    <circle cx="0" cy="-76" r="28" fill="#fafbfe" stroke="#d4e0f0" stroke-width="0.8" opacity="0.6"/>
    <rect x="-32" y="-10" width="64" height="35" rx="3" fill="#fafbfe" opacity="0.4"/>
    <text x="0" y="6" text-anchor="middle" font-family="Georgia, serif" font-size="6" fill="#14224a" opacity="0.35">С КЛЮКВОЙ</text>
  </g>

  <!-- Right jar -->
  <g transform="translate(980,560) scale(0.65)">
    <ellipse cx="0" cy="100" rx="55" ry="12" fill="#14224a" opacity="0.07"/>
    <path d="M-50,-30 Q-56,20 -46,90 Q-42,105 0,105 Q42,105 46,90 Q56,20 50,-30Z" fill="#fafbfe" stroke="#d4e0f0" stroke-width="1" opacity="0.75"/>
    <path d="M-46,0 Q-52,28 -42,80 Q-38,95 0,95 Q38,95 42,80 Q52,28 46,0Z" fill="#e8eef7" opacity="0.25"/>
    <rect x="-38" y="-62" width="76" height="36" rx="4" fill="#fafbfe" stroke="#d4e0f0" stroke-width="0.8"/>
    <circle cx="0" cy="-76" r="28" fill="#fafbfe" stroke="#d4e0f0" stroke-width="0.8" opacity="0.6"/>
    <rect x="-32" y="-10" width="64" height="35" rx="3" fill="#fafbfe" opacity="0.4"/>
    <text x="0" y="6" text-anchor="middle" font-family="Georgia, serif" font-size="6" fill="#14224a" opacity="0.35">С ТРЮФЕЛЕМ</text>
  </g>

  <!-- Baguette board -->
  <rect x="260" y="580" width="240" height="70" rx="6" fill="#d4e0f0" opacity="0.15"/>
  <rect x="265" y="583" width="230" height="64" rx="4" fill="#fafbfe" opacity="0.2"/>
  <g transform="translate(380,580) rotate(-6)">
    <ellipse cx="0" cy="0" rx="100" ry="18" fill="#d4e0f0" opacity="0.3"/>
    <ellipse cx="0" cy="0" rx="98" ry="16" fill="#fafbfe" opacity="0.45"/>
    <path d="M-70,-5 Q-55,-15 -40,-5" fill="none" stroke="#7fa7d4" stroke-width="1" opacity="0.25"/>
    <path d="M-30,-5 Q-15,-15 0,-5" fill="none" stroke="#7fa7d4" stroke-width="1" opacity="0.25"/>
    <path d="M10,-5 Q25,-15 40,-5" fill="none" stroke="#7fa7d4" stroke-width="1" opacity="0.25"/>
  </g>

  <!-- Jam bowl -->
  <g transform="translate(1180,590)">
    <ellipse cx="0" cy="0" rx="55" ry="16" fill="#fafbfe" stroke="#7fa7d4" stroke-width="1"/>
    <path d="M-55,0 Q-55,-40 0,-50 Q55,-40 55,0" fill="#fafbfe" stroke="#7fa7d4" stroke-width="1"/>
    <ellipse cx="0" cy="-15" rx="45" ry="28" fill="#d4e0f0" opacity="0.3"/>
    <circle cx="-12" cy="-20" r="4.5" fill="#14224a" opacity="0.1"/>
    <circle cx="10" cy="-25" r="4" fill="#14224a" opacity="0.08"/>
    <circle cx="5" cy="-12" r="4.5" fill="#14224a" opacity="0.1"/>
    <circle cx="-5" cy="-28" r="3.5" fill="#14224a" opacity="0.07"/>
  </g>

  <!-- Wine glass -->
  <g transform="translate(1250,540)" opacity="0.3">
    <ellipse cx="0" cy="0" rx="18" ry="30" fill="none" stroke="#7fa7d4" stroke-width="1"/>
    <ellipse cx="0" cy="0" rx="18" ry="30" fill="#fafbfe" opacity="0.3"/>
    <path d="M-12,30 L-6,65 L6,65 L12,30" fill="none" stroke="#7fa7d4" stroke-width="1"/>
    <rect x="-10" y="65" width="20" height="6" rx="3" fill="#d4e0f0" opacity="0.4"/>
    <ellipse cx="0" cy="-5" rx="15" ry="22" fill="#d4e0f0" opacity="0.1"/>
  </g>

  <!-- Small floral decor -->
  <g transform="translate(450,660)" opacity="0.15">
    <path d="M0,-15 Q6,-10 8,0 Q6,10 0,15" fill="none" stroke="#7fa7d4" stroke-width="1"/>
    <circle cx="8" cy="0" r="3" fill="#7fa7d4"/>
  </g>
  <g transform="translate(300,660)" opacity="0.15">
    <path d="M0,-12 Q5,-8 6,0 Q5,8 0,12" fill="none" stroke="#7fa7d4" stroke-width="0.8"/>
    <circle cx="6" cy="0" r="2.5" fill="#7fa7d4"/>
  </g>

  <!-- Side floral sprays -->
  <g transform="translate(180,400)" opacity="0.18">
    <path d="M0,70 Q25,40 18,0 Q12,-30 0,-60" fill="none" stroke="#7fa7d4" stroke-width="1.3"/>
    <path d="M18,0 C32,-20 25,-45 10,-32" fill="none" stroke="#d4e0f0" stroke-width="1"/>
    <circle cx="10" cy="-32" r="10" fill="none" stroke="#7fa7d4" stroke-width="1"/>
    <circle cx="10" cy="-32" r="5" fill="#d4e0f0" opacity="0.4"/>
    <circle cx="20" cy="-15" r="5" fill="none" stroke="#7fa7d4" stroke-width="0.8"/>
    <circle cx="20" cy="-15" r="2.5" fill="#d4e0f0" opacity="0.3"/>
  </g>

  <g transform="translate(1420,400) scale(-1,1)" opacity="0.18">
    <path d="M0,70 Q25,40 18,0 Q12,-30 0,-60" fill="none" stroke="#7fa7d4" stroke-width="1.3"/>
    <path d="M18,0 C32,-20 25,-45 10,-32" fill="none" stroke="#d4e0f0" stroke-width="1"/>
    <circle cx="10" cy="-32" r="10" fill="none" stroke="#7fa7d4" stroke-width="1"/>
    <circle cx="10" cy="-32" r="5" fill="#d4e0f0" opacity="0.4"/>
  </g>

  <g transform="translate(1300,250)" opacity="0.15">
    <path d="M0,-60 Q-20,-30 -15,0 Q-10,20 0,40" fill="none" stroke="#7fa7d4" stroke-width="1"/>
    <path d="M-15,0 C-25,12 -20,28 -8,20" fill="none" stroke="#d4e0f0" stroke-width="0.8"/>
    <circle cx="-8" cy="20" r="6" fill="none" stroke="#7fa7d4" stroke-width="0.8"/>
    <circle cx="-8" cy="20" r="3" fill="#d4e0f0" opacity="0.3"/>
  </g>

  <rect x="650" y="835" width="300" height="36" rx="18" fill="#14224a" opacity="0.07"/>
  <text x="800" y="859" text-anchor="middle" font-family="Georgia, 'Times New Roman', serif" font-size="13" fill="#14224a" letter-spacing="2" opacity="0.55">ФОТО ПРЕДПРОСМОТР</text>
</svg>
